<svg xmlns="http://www.w3.org/2000/svg" width="238.233" height="146.834" viewBox="0 0 238.233 146.834">
  <g id="Layer_4" transform="translate(-59.29 -76.45)">
    <g id="Group_4" data-name="Group 4" transform="translate(59.29 76.45)">
      <g id="Group_3" data-name="Group 3">
        <path id="Path_7" data-name="Path 7" d="M243.135,125.554H273v-15.3H195.66v15.3h30.631V205.13h16.845Z" transform="translate(-131.78 -94.417)" fill="#f2674f"/>
        <path id="Path_8" data-name="Path 8" d="M261.05,282.425v13.008h16.845V283.189a14.726,14.726,0,0,0-9.191-3.059A12.918,12.918,0,0,0,261.05,282.425Z" transform="translate(-166.54 -184.72)" fill="rgba(242,103,79,0.9)"/>
        <path id="Path_9" data-name="Path 9" d="M261.05,237.248v19.131c2.3,3.827,6.891,6.122,12.254,6.122,1.532,0,3.064-.764,4.6-.764V231.894c-1.532,0-3.064-.764-4.6-.764C267.941,231.125,263.345,233.421,261.05,237.248Z" transform="translate(-166.54 -158.673)" fill="rgba(240,80,75,0.9)"/>
        <path id="Path_10" data-name="Path 10" d="M280.5,214.357V183.75a15.722,15.722,0,0,0-14.549,15.3C265.95,207.471,272.077,213.594,280.5,214.357Z" transform="translate(-169.145 -133.488)" fill="rgba(252,180,46,0.9)"/>
        <path id="Path_11" data-name="Path 11" d="M310.854,125.554h22.972v-15.3H313.917a16.588,16.588,0,0,0-3.827,10.713C310.09,122.49,310.854,124.022,310.854,125.554Z" transform="translate(-192.608 -94.417)" fill="rgba(0,152,213,0.9)"/>
        <path id="Path_12" data-name="Path 12" d="M309,110.25H280.66c1.532,6.886,6.891,12.245,13.786,12.245S307.463,117.136,309,110.25Z" transform="translate(-176.964 -94.417)" fill="rgba(0,182,235,0.9)"/>
        <path id="Path_13" data-name="Path 13" d="M225.522,110.25H195.66v15.3h22.208C222.459,121.726,224.759,116.368,225.522,110.25Z" transform="translate(-131.78 -94.417)" fill="rgba(135,59,130,0.9)"/>
        <path id="Path_14" data-name="Path 14" d="M256.164,125.554h8.422a21.681,21.681,0,0,0-9.191-15.3H229.361a21.712,21.712,0,0,0-9.191,15.3h19.145V150.8h3.064a21.415,21.415,0,0,0,13.786-4.591V125.554Z" transform="translate(-144.809 -94.417)" fill="rgba(169,47,134,0.75)"/>
        <path id="Path_15" data-name="Path 15" d="M280.5,198.29V183.75a15.722,15.722,0,0,0-14.549,15.3,22.253,22.253,0,0,0,1.532,6.886C272.841,205.939,277.436,202.881,280.5,198.29Z" transform="translate(-169.145 -133.488)" fill="rgba(242,103,79,0.9)"/>
        <path id="Path_16" data-name="Path 16" d="M429.028,223.323l-20.639-29.961c10.32-3.1,18.573-11.364,18.573-23.759,0-15.5-11.35-24.794-29.928-24.794H362.98v78.513H376.4v-27.89h17.543l18.573,27.89h16.517Zm-16.507-52.684c0,7.233-6.193,12.395-16.512,12.395H376.4V157.209h19.608C406.328,157.209,412.521,161.341,412.521,170.639Z" transform="translate(-220.723 -112.788)" fill="rgba(73,91,105,0.9)"/>
        <path id="Path_17" data-name="Path 17" d="M362.99,274.8v16.531h13.416v-15.5a11.719,11.719,0,0,0-8.254-3.1A7.866,7.866,0,0,0,362.99,274.8Z" transform="translate(-220.728 -180.787)" fill="rgba(109,60,140,0.9)"/>
        <path id="Path_18" data-name="Path 18" d="M484.073,298.355l-8.254-12.395a14.888,14.888,0,0,0-9.289,11.364l1.031,1.035h16.512Z" transform="translate(-275.767 -187.82)" fill="rgba(32,180,97,0.85)"/>
        <path id="Path_19" data-name="Path 19" d="M460.595,270.72l-10.319-13.43h-3.1c-3.1,0-7.223,1.035-9.289,4.132l14.446,20.662A15.98,15.98,0,0,0,460.595,270.72Z" transform="translate(-260.543 -172.579)" fill="rgba(250,169,78,0.9)"/>
        <path id="Path_20" data-name="Path 20" d="M455.71,229.911l-5.162-7.233c9.289-2.066,15.482-8.263,17.543-18.6a15.764,15.764,0,0,0-10.319-4.132h-3.1c0,7.233-5.162,11.364-12.385,12.395v3.1C442.295,222.678,448.487,228.875,455.71,229.911Z" transform="translate(-262.882 -142.099)" fill="rgba(252,180,46,0.9)"/>
        <path id="Path_21" data-name="Path 21" d="M433.737,208.77c1.031,1.035,1.031,2.066,1.031,4.132a15.88,15.88,0,0,1-15.482,15.5c-6.193,0-12.385-5.167-14.446-11.364h13.416C426.514,217.038,432.707,213.937,433.737,208.77Z" transform="translate(-242.974 -146.788)" fill="rgba(242,103,79,0.9)"/>
        <path id="Path_22" data-name="Path 22" d="M400.44,245.847h13.416l11.35,17.561c2.066-3.1,2.066-5.167,2.066-8.263,0-9.3-6.193-15.5-14.446-15.5C407.663,239.65,402.506,241.716,400.44,245.847Z" transform="translate(-240.636 -163.202)" fill="rgba(240,84,75,0.9)"/>
        <path id="Path_23" data-name="Path 23" d="M391.877,144.82h-28.9v17.566c2.066,5.167,7.223,8.263,13.416,8.263v-13.43h17.543v-3.1A24.538,24.538,0,0,0,391.877,144.82Z" transform="translate(-220.723 -112.794)" fill="rgba(0,152,213,0.85)"/>
        <path id="Path_24" data-name="Path 24" d="M362.99,144.82v34.092h1.031a17.076,17.076,0,0,0,12.385-5.167V157.215h4.127a16.73,16.73,0,0,0-16.512-12.395Z" transform="translate(-220.728 -112.794)" fill="rgba(169,47,134,0.9)"/>
        <path id="Path_25" data-name="Path 25" d="M374.618,186.213l4.127-3.1V166.582h4.127a5.355,5.355,0,0,0-2.066-4.132h0c-7.223,0-13.416,6.2-13.416,12.395S370.486,184.148,374.618,186.213Z" transform="translate(-223.067 -122.165)" fill="rgba(175,59,144,0.9)"/>
        <path id="Path_26" data-name="Path 26" d="M362.99,197.75v40.29h3.1a30.57,30.57,0,0,0,10.319-2.066V223.579h9.289a19.149,19.149,0,0,0,0-12.395h-9.289V199.82c-3.1-2.066-6.193-2.066-10.319-2.066Q364.533,197.748,362.99,197.75Z" transform="translate(-220.728 -140.93)" fill="rgba(135,59,130,0.9)"/>
        <path id="Path_27" data-name="Path 27" d="M374,272.034a19.439,19.439,0,0,0,8.254-2.066V261.7C378.132,262.735,375.035,266.867,374,272.034Z" transform="translate(-226.581 -174.924)" fill="rgba(90,138,196,0.6)"/>
        <path id="Path_28" data-name="Path 28" d="M382.258,291.317v-15.5l-6.193-3.1c-1.031,2.066-2.066,4.132-2.066,6.2A13.42,13.42,0,0,0,382.258,291.317Z" transform="translate(-226.581 -180.782)" fill="rgba(90,138,196,0.6)"/>
        <path id="Path_29" data-name="Path 29" d="M461.012,247.829l-9.289-13.43a34.97,34.97,0,0,0,14.446-9.3,11.719,11.719,0,0,0-8.254-3.1A13.667,13.667,0,0,0,444.5,235.43c0,6.2,6.193,12.395,13.416,12.395C458.946,247.829,459.982,247.829,461.012,247.829Z" transform="translate(-264.057 -153.82)" fill="rgba(251,177,94,0.65)"/>
        <path id="Path_30" data-name="Path 30" d="M470.76,98.143l6.188,6.2-6.193,6.2,6.193,6.2-8.254,7.233,11.35,12.395-12.385,12.395L456.309,137.4l-5.162,5.167-4.127-4.132-8.254,9.3-10.319-9.3,2.066-2.066v-1.035L420.193,145.66l-12.385-13.43,9.289-8.263-10.319-10.329,4.127-4.132-8.254-8.263,9.289-9.3,8.254,7.233,2.066-2.066-9.289-9.3L423.289,76.45l8.254,8.263,7.223-7.233,6.193,7.233,7.223-7.233,18.573,19.627v1.035Zm-35.09-4.132-4.127-4.132h-1.031l4.127,5.167Z" transform="translate(-241.81 -76.45)" fill="#fff"/>
        <path id="Path_31" data-name="Path 31" d="M468.74,94.847,473.9,89.68l4.127,5.167L473.9,98.978Z" transform="translate(-276.942 -83.483)" fill="#20b78d"/>
        <path id="Path_32" data-name="Path 32" d="M435.69,94.847l5.157-5.167,5.162,5.167-5.162,5.167Z" transform="translate(-259.373 -83.483)" fill="#0098d5"/>
        <path id="Path_33" data-name="Path 33" d="M413.66,124.692l4.127-4.132,5.162,4.132-5.162,4.132Z" transform="translate(-247.663 -99.898)" fill="#5a8ac4"/>
        <path id="Path_34" data-name="Path 34" d="M479.75,151.017l5.162-6.2,6.188,6.2-5.157,6.2Z" transform="translate(-282.794 -112.794)" fill="#00b6eb"/>
        <path id="Path_35" data-name="Path 35" d="M422.47,149.982l6.193-5.162,6.193,6.2-6.193,5.167Z" transform="translate(-252.346 -112.794)" fill="#873b82"/>
        <path id="Path_36" data-name="Path 36" d="M440.1,125.448l9.284-9.3,9.289,9.3-9.289,9.294Z" transform="translate(-261.718 -97.553)" fill="#6d3c8c"/>
        <path id="Path_37" data-name="Path 37" d="M446.7,165.138l9.289-9.3,9.289,10.334-9.289,9.3Z" transform="translate(-265.226 -118.651)" fill="#a92f86"/>
        <path id="Path_38" data-name="Path 38" d="M424.67,187.333,431.9,180.1l8.254,8.268L431.9,195.6Z" transform="translate(-253.516 -131.547)" fill="#faa94e"/>
        <path id="Path_39" data-name="Path 39" d="M468.74,202.912l5.157-5.162,4.127,5.162-4.127,4.132Z" transform="translate(-276.942 -140.93)" fill="#fcb42e"/>
        <path id="Path_40" data-name="Path 40" d="M479.75,104.145,493.166,89.68l13.416,14.465-13.416,13.43Z" transform="translate(-282.794 -83.483)" fill="#20b461"/>
        <path id="Path_41" data-name="Path 41" d="M512.8,153.083l8.254-8.263,8.258,8.263-8.258,8.263Z" transform="translate(-300.363 -112.794)" fill="#f2674f"/>
        <path id="Path_42" data-name="Path 42" d="M488.56,179.543l8.258-8.263,8.254,8.263-8.254,8.268Z" transform="translate(-287.478 -126.859)" fill="#f0504b"/>
        <path id="Path_43" data-name="Path 43" d="M526.01,195.122l7.228-6.2,7.223,7.233-7.223,6.2Z" transform="translate(-307.385 -136.236)" fill="#f0544b"/>
        <path id="Path_44" data-name="Path 44" d="M530.42,131.306l5.162-4.136,4.127,4.136-4.127,4.132Z" transform="translate(-309.729 -103.411)" fill="#afd57f"/>
        <g id="Group_2" data-name="Group 2" transform="translate(0 31.361)">
          <path id="Path_45" data-name="Path 45" d="M122.237,143.4H59.29v84.537h63.983v-13.4H74.767V191.854H117.08v-13.4H74.767V156.8h47.471Z" transform="translate(-59.29 -143.4)" fill="#495b69"/>
          <path id="Path_46" data-name="Path 46" d="M146.828,143.4H106.581c-1.031,2.061-1.031,4.122-1.031,7.218a13.071,13.071,0,0,0,1.031,6.183h40.247Z" transform="translate(-83.88 -143.4)" fill="rgba(242,103,79,0.9)"/>
          <path id="Path_47" data-name="Path 47" d="M88.183,143.4H59.29v38.144c3.1,0,5.162,1.031,8.254,1.031,4.127,0,8.254-2.061,12.385-4.122H74.767V156.8H92.31C92.31,151.649,91.279,147.527,88.183,143.4Z" transform="translate(-59.29 -143.4)" fill="rgba(240,80,75,0.9)"/>
          <path id="Path_48" data-name="Path 48" d="M75.936,230.578V214.085h42.313c1.031-2.061,0-4.122,0-6.183s1.031-5.153,0-7.218H75.936V185.22C67.683,189.342,61.49,197.591,61.49,207.9S67.683,226.456,75.936,230.578Z" transform="translate(-60.459 -165.63)" fill="rgba(252,180,46,0.95)"/>
          <path id="Path_49" data-name="Path 49" d="M59.29,187.42V236.9a28.4,28.4,0,0,0,15.482-8.249v-13.4h6.193v-3.092a36.492,36.492,0,0,0-2.066-10.31H74.772v-6.183A28.413,28.413,0,0,0,59.29,187.42Z" transform="translate(-59.29 -166.8)" fill="rgba(252,180,46,0.85)"/>
          <path id="Path_50" data-name="Path 50" d="M59.29,270.911v23.712H95.411c0-5.153-1.031-9.28-4.127-13.4H74.767V269.881c-2.066,0-3.1-1.031-5.162-1.031A36.71,36.71,0,0,0,59.29,270.911Z" transform="translate(-59.29 -210.086)" fill="rgba(169,47,134,0.8)"/>
          <path id="Path_51" data-name="Path 51" d="M185.154,237.542l8.254,8.249-7.223,7.218,6.193,7.218-9.289,9.28,13.416,13.4-13.416,13.4-13.416-13.4-6.193,6.183-12.385-13.4h0l8.254,9.28-10.319,10.31-10.319-10.31,2.066-2.061-1.031-2.061-11.35,12.371-14.446-14.432,10.319-10.319-11.35-11.341,5.162-5.153-10.319-10.31,10.319-10.31,9.289,9.28,3.1-4.122-10.319-11.341L131.5,213.83l9.289,10.31,8.254-9.28,8.254,8.249,7.223-8.249,21.67,21.651Zm-38.182-4.127-6.193-6.183-2.066,2.061,6.193,6.183Zm7.223,13.4-8.254,8.249h0l8.254-8.249Z" transform="translate(-85.055 -180.839)" fill="#fff"/>
          <path id="Path_52" data-name="Path 52" d="M184.86,233.357l5.162-4.127,5.157,5.157-5.157,4.122Z" transform="translate(-126.039 -189.025)" fill="#20b78d"/>
          <path id="Path_53" data-name="Path 53" d="M145.21,232.187l6.188-5.157,6.193,6.188-6.193,5.153Z" transform="translate(-104.963 -187.855)" fill="#0098d5"/>
          <path id="Path_54" data-name="Path 54" d="M120.97,267.4l4.127-5.157,5.162,5.157-4.127,5.153Z" transform="translate(-92.077 -206.572)" fill="#5a8ac4"/>
          <path id="Path_55" data-name="Path 55" d="M195.88,298.068l7.223-7.218,7.223,7.218-7.223,7.214Z" transform="translate(-131.897 -221.78)" fill="#00b6eb"/>
          <path id="Path_56" data-name="Path 56" d="M129.78,298.068l7.228-7.218,7.223,7.218-7.223,7.214Z" transform="translate(-96.76 -221.78)" fill="#873b82"/>
          <path id="Path_57" data-name="Path 57" d="M151.81,268.15l10.324-10.31,11.35,10.31-11.35,11.341Z" transform="translate(-108.471 -204.233)" fill="#6d3c8c"/>
          <path id="Path_58" data-name="Path 58" d="M158.42,316.57l11.355-10.31L180.094,317.6l-10.319,10.31Z" transform="translate(-111.985 -229.972)" fill="#a92f86"/>
          <path id="Path_59" data-name="Path 59" d="M131.99,343.119l9.284-8.249,8.258,8.249-8.258,8.244Z" transform="translate(-97.935 -245.18)" fill="#faa94e"/>
          <path id="Path_60" data-name="Path 60" d="M184.86,359.833l5.162-5.153,5.157,5.153-5.157,5.153Z" transform="translate(-126.039 -255.71)" fill="#fcb42e"/>
          <path id="Path_61" data-name="Path 61" d="M195.88,244.693l15.477-15.463,16.512,15.463-15.482,16.5Z" transform="translate(-131.897 -189.025)" fill="#20b461"/>
          <path id="Path_62" data-name="Path 62" d="M235.53,300.13l10.319-9.28,9.289,10.31-9.289,9.28Z" transform="translate(-152.974 -221.78)" fill="#f2674f"/>
          <path id="Path_63" data-name="Path 63" d="M206.89,333.145l9.289-9.275,9.289,9.275-9.289,9.28Z" transform="translate(-137.75 -239.333)" fill="#f0504b"/>
          <path id="Path_64" data-name="Path 64" d="M250.95,349.719l8.258-8.249,8.254,9.28-8.254,8.244Z" transform="translate(-161.171 -248.688)" fill="#f0544b"/>
          <path id="Path_65" data-name="Path 65" d="M257.56,276.2l5.162-5.153,5.157,5.153-5.157,5.153Z" transform="translate(-164.685 -211.255)" fill="#afd57f"/>
          <path id="Path_66" data-name="Path 66" d="M59.29,177.451v28.865c1.031,0,8.254,1.031,13.416-2.061A14.693,14.693,0,0,0,76.833,196H74.767V179.512q-3.1-3.092-9.289-3.092A13.089,13.089,0,0,0,59.29,177.451Z" transform="translate(-59.29 -160.952)" fill="rgba(250,169,78,0.15)"/>
          <path id="Path_67" data-name="Path 67" d="M59.29,239.076v26.8a11.239,11.239,0,0,0,5.162,1.031c4.127,0,7.223-2.061,10.319-4.122V242.172c-3.1-2.061-7.223-4.122-10.319-4.122S61.351,238.045,59.29,239.076Z" transform="translate(-59.29 -193.713)" fill="rgba(135,59,130,0.9)"/>
        </g>
      </g>
    </g>
  </g>
</svg>
